<svg width="271" height="144" viewBox="0 0 271 144" fill="none" xmlns="http://www.w3.org/2000/svg">
<rect width="271" height="144" rx="8" fill="white"/>
<g clip-path="url(#clip0)">
<path d="M55.5334 80.0429L58.3779 64.0431H62.8223L60.0667 80.0429H55.5334Z" fill="#3C58BF"/>
<path d="M55.5334 80.0429L59.1779 64.0431H62.8223L60.0667 80.0429H55.5334Z" fill="#293688"/>
<path d="M76.1555 64.221C75.2666 63.8654 73.8444 63.5099 72.0667 63.5099C67.6223 63.5099 64.4223 65.7321 64.4223 68.9321C64.4223 71.332 66.6445 72.5765 68.4223 73.3765C70.2 74.1764 70.7334 74.7098 70.7334 75.4209C70.7334 76.4875 69.3111 77.0209 68.0667 77.0209C66.289 77.0209 65.3112 76.7542 63.8001 76.132L63.1779 75.8653L62.5557 79.5097C63.6223 79.9542 65.5779 80.3986 67.6223 80.3986C72.3333 80.3986 75.4444 78.1764 75.4444 74.7987C75.4444 72.932 74.2889 71.5098 71.6222 70.3543C70.0222 69.5543 69.0445 69.1098 69.0445 68.3098C69.0445 67.5987 69.8445 66.8876 71.6222 66.8876C73.1333 66.8876 74.2 67.1543 75 67.5098L75.4444 67.6876L76.1555 64.221Z" fill="#3C58BF"/>
<path d="M76.1555 64.221C75.2666 63.8654 73.8444 63.5099 72.0667 63.5099C67.6223 63.5099 65.2223 65.7321 65.2223 68.9321C65.2223 71.332 66.6445 72.5765 68.4223 73.3765C70.2 74.1764 70.7334 74.7098 70.7334 75.4209C70.7334 76.4875 69.3111 77.0209 68.0667 77.0209C66.289 77.0209 65.3112 76.7542 63.8001 76.132L63.1779 75.8653L62.5557 79.5097C63.6223 79.9542 65.5779 80.3986 67.6223 80.3986C72.3333 80.3986 75.4444 78.1764 75.4444 74.7987C75.4444 72.932 74.2889 71.5098 71.6222 70.3543C70.0222 69.5543 69.0445 69.1098 69.0445 68.3098C69.0445 67.5987 69.8445 66.8876 71.6222 66.8876C73.1333 66.8876 74.2 67.1543 75 67.5098L75.4444 67.6876L76.1555 64.221Z" fill="#293688"/>
<path d="M83.7997 64.0431C82.7331 64.0431 81.9331 64.132 81.4886 65.1986L74.822 80.0429H79.622L80.5109 77.3763H86.1997L86.733 80.0429H90.9996L87.2663 64.0431H83.7997ZM81.7553 74.7096C82.0219 73.9097 83.533 69.9986 83.533 69.9986C83.533 69.9986 83.8886 69.0208 84.1553 68.3986L84.4219 69.9097C84.4219 69.9097 85.3108 73.9097 85.4886 74.7985H81.7553V74.7096Z" fill="#3C58BF"/>
<path d="M84.8664 64.0431C83.7997 64.0431 82.9997 64.132 82.5553 65.1986L74.822 80.0429H79.622L80.5109 77.3763H86.1997L86.733 80.0429H90.9996L87.2663 64.0431H84.8664ZM81.7553 74.7096C82.1108 73.8208 83.533 69.9986 83.533 69.9986C83.533 69.9986 83.8886 69.0208 84.1553 68.3986L84.4219 69.9097C84.4219 69.9097 85.3108 73.9097 85.4886 74.7985H81.7553V74.7096Z" fill="#293688"/>
<path d="M47.3551 75.2429L46.9106 72.9319C46.1106 70.2652 43.5329 67.3319 40.6885 65.9097L44.6884 80.1318H49.4884L56.6883 64.132H51.8884L47.3551 75.2429Z" fill="#3C58BF"/>
<path d="M47.3551 75.2429L46.9106 72.9319C46.1106 70.2652 43.5329 67.3319 40.6885 65.9097L44.6884 80.1318H49.4884L56.6883 64.132H52.7772L47.3551 75.2429Z" fill="#293688"/>
<path d="M35 64.0431L35.8 64.2209C41.4888 65.5542 45.3999 68.9319 46.911 72.9319L45.311 65.3764C45.0443 64.3098 44.2443 64.0431 43.2666 64.0431H35Z" fill="#FFBC00"/>
<path d="M35 64.0431C40.6888 65.3764 45.3999 68.843 46.911 72.843L45.3999 66.532C45.1332 65.4653 44.2443 64.8431 43.2666 64.8431L35 64.0431Z" fill="#F7981D"/>
<path d="M35 64.0431C40.6888 65.3764 45.3999 68.843 46.911 72.843L45.8443 69.3764C45.5777 68.3097 45.2221 67.2431 43.9777 66.7986L35 64.0431Z" fill="#ED7C00"/>
<path d="M51.8002 74.7113L48.778 71.6891L47.3558 75.0669L47.0002 72.8447C46.2002 70.178 43.6225 67.2447 40.7781 65.8225L44.778 80.0446H49.578L51.8002 74.7113Z" fill="#051244"/>
<path d="M60.066 80.0433L56.2438 76.1322L55.5327 80.0433H60.066Z" fill="#051244"/>
<path d="M70.2882 74.5326C70.6437 74.8881 70.8215 75.1548 70.7326 75.5104C70.7326 76.577 69.3104 77.1103 68.066 77.1103C66.2882 77.1103 65.3105 76.8437 63.7994 76.2215L63.1771 75.9548L62.5549 79.5992C63.6216 80.0436 65.5771 80.4881 67.6215 80.4881C70.466 80.4881 72.777 79.6881 74.1104 78.2659L70.2882 74.5326Z" fill="#051244"/>
<path d="M75.4441 80.0437H79.6218L80.5107 77.3771H86.1995L86.7329 80.0437H90.9995L89.4884 73.5549L84.1551 68.3994L84.4218 69.8216C84.4218 69.8216 85.3107 73.8216 85.4884 74.7105H81.7551C82.1107 73.8216 83.5329 69.9994 83.5329 69.9994C83.5329 69.9994 83.8884 69.0216 84.1551 68.3994" fill="#051244"/>
</g>
<g clip-path="url(#clip1)">
<path d="M113.3 67.065H115.255L114.278 64.5762L113.3 67.065Z" fill="#2FABF7"/>
<path d="M137.567 64.9317C137.389 64.8428 137.123 64.8428 136.856 64.8428H135.078V66.265H136.856C137.123 66.265 137.389 66.265 137.567 66.1761C137.745 66.0872 137.834 65.8205 137.834 65.5539C137.923 65.1983 137.745 65.0205 137.567 64.9317Z" fill="#228FE0"/>
<path d="M156.589 62.2656V63.3323L156.056 62.2656H151.878V63.3323L151.344 62.2656H145.656C144.678 62.2656 143.878 62.4434 143.167 62.799V62.2656H139.167V62.799C138.722 62.4434 138.189 62.2656 137.478 62.2656H123.167L122.189 64.4878L121.211 62.2656H116.678V63.3323L116.144 62.2656H112.322L110.544 66.4434L108.5 71.0655H110.544H113.033L113.567 69.6433H114.811L115.344 71.0655H120.5V69.9989L120.944 71.0655H123.522L123.967 69.9989V71.0655H136.322V68.7544H136.5C136.678 68.7544 136.678 68.7544 136.678 69.0211V70.9766H143.078V70.4433C143.611 70.71 144.411 70.9766 145.478 70.9766H148.144L148.678 69.5544H149.922L150.456 70.9766H155.611V69.6433L156.411 70.9766H160.589V62.2656H156.589ZM126.544 69.7322H125.033V64.8434L122.9 69.7322H121.567L119.433 64.8434V69.7322H116.411L115.789 68.3989H112.767L112.233 69.8211H110.544L113.211 63.5101H115.433L117.922 69.4655V63.5101H120.322L122.278 67.7767L124.056 63.5101H126.544V69.7322ZM132.589 64.8434H129.122V65.9989H132.5V67.2433H129.122V68.4878H132.589V69.8211H127.611V63.5101H132.589V64.8434ZM139.256 67.4211C139.433 67.7767 139.522 68.0433 139.522 68.5767V69.8211H138.011V69.0211C138.011 68.6656 138.011 68.1322 137.744 67.7767C137.478 67.51 137.211 67.51 136.678 67.51H135.078V69.8211H133.567V63.5101H136.944C137.744 63.5101 138.278 63.5101 138.722 63.7767C139.167 64.0434 139.433 64.4878 139.433 65.1989C139.433 66.1767 138.811 66.71 138.367 66.8878C138.811 66.9767 139.078 67.2433 139.256 67.4211ZM141.922 69.7322H140.411V63.4212H141.922V69.7322ZM159.433 69.7322H157.3L154.456 65.0211V69.7322H151.433L150.9 68.3989H147.789L147.256 69.8211H145.567C144.856 69.8211 143.967 69.6433 143.433 69.11C142.9 68.5767 142.633 67.8656 142.633 66.71C142.633 65.8211 142.811 64.9323 143.433 64.2212C143.878 63.6878 144.678 63.5101 145.656 63.5101H147.078V64.8434H145.656C145.122 64.8434 144.856 64.9323 144.5 65.1989C144.233 65.4656 144.056 65.9989 144.056 66.6211C144.056 67.3322 144.144 67.7767 144.5 68.1322C144.767 68.3989 145.122 68.4878 145.567 68.4878H146.189L148.233 63.5989H150.456L152.944 69.5544V63.5989H155.167L157.744 67.9545V63.5989H159.256V69.7322H159.433Z" fill="#0571C1"/>
<path d="M148.323 67.0661H150.367L149.389 64.5773L148.323 67.0661Z" fill="#228FE0"/>
<path d="M133.211 79.8657V74.7991L130.9 77.2879L133.211 79.8657Z" fill="#228FE0"/>
<path d="M123.701 75.4214V76.5769H126.99V77.8214H123.701V79.1547H127.345L129.034 77.288L127.434 75.4214H123.701Z" fill="#2FABF7"/>
<path d="M136.589 75.4214H134.723V77.0214H136.678C137.212 77.0214 137.567 76.7547 137.567 76.2214C137.478 75.6881 137.123 75.4214 136.589 75.4214Z" fill="#228FE0"/>
<path d="M164.056 76.9317V72.9318H162.989H160.323C159.523 72.9318 158.9 73.1095 158.456 73.4651V72.9318H154.367C153.745 72.9318 152.945 73.1095 152.589 73.4651V72.9318H145.389V73.4651C144.856 73.0207 143.878 72.9318 143.434 72.9318H138.634V73.4651C138.189 73.0207 137.123 72.9318 136.589 72.9318H131.256L130.012 74.2651L128.856 72.9318H120.856V81.6428H128.678L129.923 80.3095L131.078 81.6428H135.878V79.5984H136.5C137.123 79.5984 137.923 79.5984 138.545 79.3317V81.7317H142.545V79.4206H142.723C142.989 79.4206 142.989 79.4206 142.989 79.6872V81.7317H155.078C155.878 81.7317 156.678 81.5539 157.123 81.1983V81.7317H160.945C161.745 81.7317 162.545 81.6428 163.078 81.2872C163.967 80.7539 164.5 79.7761 164.5 78.6206C164.5 77.9984 164.323 77.3762 164.056 76.9317ZM136.5 78.3539H134.723V80.4872H131.878L130.1 78.4428L128.234 80.4872H122.367V74.1762H128.323L130.1 76.2206L131.967 74.1762H136.678C137.834 74.1762 139.167 74.5317 139.167 76.2206C139.078 77.9984 137.834 78.3539 136.5 78.3539ZM145.389 77.9984C145.567 78.265 145.656 78.6206 145.656 79.1539V80.3984H144.145V79.5984C144.145 79.2428 144.145 78.6206 143.878 78.3539C143.7 78.0873 143.345 78.0873 142.812 78.0873H141.212V80.3984H139.7V74.0873H143.078C143.789 74.0873 144.412 74.0873 144.856 74.354C145.3 74.6206 145.656 75.0651 145.656 75.7762C145.656 76.7539 145.034 77.2873 144.589 77.465C145.034 77.6428 145.3 77.8206 145.389 77.9984ZM151.523 75.4206H148.056V76.5762H151.434V77.8206H148.056V79.065H151.523V80.3984H146.545V74.0873H151.523V75.4206ZM155.256 80.3984H152.412V79.065H155.256C155.523 79.065 155.7 79.065 155.878 78.8873C155.967 78.7984 156.056 78.6206 156.056 78.4428C156.056 78.265 155.967 78.0873 155.878 77.9984C155.789 77.9095 155.612 77.8206 155.345 77.8206C153.923 77.7317 152.234 77.8206 152.234 75.8651C152.234 74.9762 152.767 73.9984 154.367 73.9984H157.3V75.5095H154.545C154.278 75.5095 154.1 75.5095 153.923 75.5984C153.745 75.6873 153.745 75.8651 153.745 76.0428C153.745 76.3095 153.923 76.3984 154.1 76.4873C154.278 76.5762 154.456 76.5762 154.634 76.5762H155.434C156.234 76.5762 156.767 76.7539 157.123 77.1095C157.389 77.3762 157.567 77.8206 157.567 78.4428C157.567 79.7761 156.767 80.3984 155.256 80.3984ZM162.9 79.7761C162.545 80.1317 161.923 80.3984 161.034 80.3984H158.189V79.065H161.034C161.3 79.065 161.478 79.065 161.656 78.8873C161.745 78.7984 161.834 78.6206 161.834 78.4428C161.834 78.265 161.745 78.0873 161.656 77.9984C161.567 77.9095 161.389 77.8206 161.123 77.8206C159.7 77.7317 158.012 77.8206 158.012 75.8651C158.012 74.9762 158.545 73.9984 160.145 73.9984H163.078V75.5095H160.412C160.145 75.5095 159.967 75.5095 159.789 75.5984C159.612 75.6873 159.612 75.8651 159.612 76.0428C159.612 76.3095 159.7 76.3984 159.967 76.4873C160.145 76.5762 160.323 76.5762 160.5 76.5762H161.3C162.1 76.5762 162.634 76.7539 162.989 77.1095C163.078 77.1095 163.078 77.1984 163.078 77.1984C163.345 77.5539 163.434 77.9984 163.434 78.4428C163.434 78.9761 163.256 79.4206 162.9 79.7761Z" fill="#0571C1"/>
<path d="M143.789 75.5991C143.612 75.5103 143.345 75.5103 143.078 75.5103H141.301V76.9325H143.078C143.345 76.9325 143.612 76.9325 143.789 76.8436C143.967 76.7547 144.056 76.488 144.056 76.2214C144.145 75.8658 143.967 75.688 143.789 75.5991Z" fill="#228FE0"/>
<path d="M137.566 64.9328C137.388 64.8439 137.121 64.8439 136.855 64.8439H135.077V66.2661H136.855C137.121 66.2661 137.388 66.2661 137.566 66.1772C137.744 66.0883 137.832 65.8216 137.832 65.555C137.921 65.1994 137.744 65.0216 137.566 64.9328Z" fill="#228FE0"/>
<path d="M148.323 67.0661H150.367L149.389 64.5773L148.323 67.0661Z" fill="#228FE0"/>
<path d="M133.211 79.8657V74.7991L130.9 77.2879L133.211 79.8657Z" fill="#228FE0"/>
<path d="M136.589 75.4214H134.723V77.0214H136.678C137.212 77.0214 137.567 76.7547 137.567 76.2214C137.478 75.6881 137.123 75.4214 136.589 75.4214Z" fill="#228FE0"/>
<path d="M143.789 75.5991C143.612 75.5103 143.345 75.5103 143.078 75.5103H141.301V76.9325H143.078C143.345 76.9325 143.612 76.9325 143.789 76.8436C143.967 76.7547 144.056 76.488 144.056 76.2214C144.145 75.8658 143.967 75.688 143.789 75.5991Z" fill="#228FE0"/>
<path d="M135.967 80.2219L134.723 78.8886V80.3997H131.789L130.012 78.3553L128.056 80.3997H122.189V74.1775H128.145L130.012 76.222L130.9 75.1553L128.678 72.9331H120.856V81.6441H128.678L130.012 80.3108L131.167 81.6441H135.967V80.2219Z" fill="#2FABF7"/>
<path d="M126.722 70.9766L125.567 69.7322H125.033V69.1989L123.7 67.8656L122.811 69.7322H121.567L119.433 64.8434V69.7322H116.411L115.789 68.3989H112.767L112.144 69.7322H110.544L113.211 63.5101H115.433L117.922 69.4656V63.5101H119.256L118.011 62.2656H116.678V63.3323L116.233 62.2656H112.322L110.544 66.4434L108.5 70.9766H110.544H113.122L113.656 69.6433H114.9L115.522 70.9766H120.5V69.91L120.944 70.9766H123.522L123.967 69.91V70.9766H126.722Z" fill="#2FABF7"/>
<path d="M122.634 66.8891L121.211 65.4669L122.278 67.778L122.634 66.8891Z" fill="#2FABF7"/>
<path d="M163.079 81.1998C163.879 80.6664 164.412 79.7775 164.501 78.7998L163.257 77.5553C163.346 77.822 163.435 78.0887 163.435 78.4442C163.435 78.9776 163.257 79.422 162.901 79.7775C162.546 80.1331 161.924 80.3998 161.035 80.3998H158.19V79.0664H161.035C161.301 79.0664 161.479 79.0664 161.657 78.8887C161.746 78.7998 161.835 78.622 161.835 78.4442C161.835 78.2664 161.746 78.0887 161.657 77.9998C161.568 77.9109 161.39 77.822 161.124 77.822C159.701 77.7331 158.012 77.822 158.012 75.8665C158.012 74.9776 158.546 74.1776 159.879 73.9998L158.901 73.0221C158.724 73.1109 158.635 73.1998 158.546 73.1998V72.6665H154.457C153.835 72.6665 153.035 72.8443 152.679 73.1998V72.6665H145.39V73.1998C144.857 72.7554 143.879 72.6665 143.435 72.6665H138.635V73.1998C138.19 72.7554 137.124 72.6665 136.59 72.6665H131.257L130.012 73.9998L128.857 72.6665H127.879L130.546 75.3331L131.879 73.9109H136.59C137.746 73.9109 139.079 74.2665 139.079 75.9554C139.079 77.7331 137.835 78.0887 136.501 78.0887H134.724V79.422L136.057 80.7553V79.422H136.501C137.124 79.422 137.924 79.422 138.546 79.1553V81.5553H142.546V79.2442H142.724C142.99 79.2442 142.99 79.2442 142.99 79.5109V81.5553H155.079C155.879 81.5553 156.679 81.3775 157.124 81.022V81.5553H160.946C161.657 81.6442 162.457 81.5553 163.079 81.1998ZM145.39 77.9998C145.568 78.2664 145.657 78.622 145.657 79.1553V80.3998H144.146V79.5998C144.146 79.2442 144.146 78.622 143.879 78.3553C143.701 78.0887 143.346 78.0887 142.812 78.0887H141.212V80.3998H139.701V74.0887H143.079C143.79 74.0887 144.412 74.0887 144.857 74.3554C145.301 74.622 145.657 75.0665 145.657 75.7776C145.657 76.7554 145.035 77.2887 144.59 77.4665C145.035 77.6442 145.301 77.822 145.39 77.9998ZM151.524 75.422H148.057V76.5776H151.435V77.822H148.057V79.0664H151.524V80.3998H146.546V74.0887H151.524V75.422ZM155.257 80.3998H152.412V79.0664H155.257C155.524 79.0664 155.701 79.0664 155.879 78.8887C155.968 78.7998 156.057 78.622 156.057 78.4442C156.057 78.2664 155.968 78.0887 155.879 77.9998C155.79 77.9109 155.612 77.822 155.346 77.822C153.924 77.7331 152.235 77.822 152.235 75.8665C152.235 74.9776 152.768 73.9998 154.368 73.9998H157.301V75.5109H154.546C154.279 75.5109 154.101 75.5109 153.924 75.5998C153.746 75.6887 153.746 75.8665 153.746 76.0442C153.746 76.3109 153.924 76.3998 154.101 76.4887C154.279 76.5776 154.457 76.5776 154.635 76.5776H155.435C156.235 76.5776 156.768 76.7554 157.124 77.1109C157.39 77.3776 157.568 77.822 157.568 78.4442C157.568 79.7775 156.768 80.3998 155.257 80.3998Z" fill="#228FE0"/>
<path d="M159.523 76.0436C159.523 76.3102 159.612 76.3991 159.879 76.488C160.057 76.5769 160.234 76.5769 160.412 76.5769H161.212C161.745 76.5769 162.101 76.6658 162.457 76.8436L161.123 75.5103H160.323C160.057 75.5103 159.879 75.5103 159.701 75.5991C159.612 75.688 159.523 75.8658 159.523 76.0436Z" fill="#228FE0"/>
<path d="M156.412 70.7101L156.59 70.9768H156.679L156.412 70.7101Z" fill="#228FE0"/>
<path d="M151.523 65.8224L153.034 69.4668V67.3335L151.523 65.8224Z" fill="#228FE0"/>
<path d="M136.323 68.7544H136.501C136.678 68.7544 136.678 68.7544 136.678 69.0211V70.9766H143.078V70.4433C143.612 70.71 144.412 70.9766 145.478 70.9766H148.145L148.678 69.5544H149.923L150.456 70.9766H155.612V70.0877L154.367 68.8433V69.8211H151.345L150.901 68.3989H147.789L147.256 69.8211H145.567C144.856 69.8211 143.967 69.6433 143.434 69.11C142.901 68.5766 142.634 67.8655 142.634 66.71C142.634 65.8211 142.812 64.9322 143.434 64.2211C143.878 63.6878 144.678 63.51 145.656 63.51H147.078V64.8434H145.656C145.123 64.8434 144.856 64.9322 144.501 65.1989C144.234 65.4656 144.056 65.9989 144.056 66.6211C144.056 67.3322 144.145 67.7767 144.501 68.1322C144.767 68.3989 145.123 68.4878 145.567 68.4878H146.189L148.234 63.5989H149.123L147.878 62.3545H145.567C144.589 62.3545 143.789 62.5323 143.078 62.8878V62.3545H139.167V62.8878C138.723 62.5323 138.189 62.3545 137.478 62.3545H123.167L122.189 64.5767L121.212 62.3545H117.301L118.545 63.5989H120.323L121.834 66.8878L122.367 67.4211L123.967 63.51H126.456V69.8211H124.945V64.9322L123.434 68.4878L126.012 71.0655H136.234L136.323 68.7544ZM140.412 63.51H141.923V69.8211H140.412V63.51ZM132.589 64.8434H129.123V65.9989H132.501V67.2433H129.123V68.4878H132.589V69.8211H127.612V63.51H132.589V64.8434ZM135.078 69.7322H133.567V63.4211H136.945C137.745 63.4211 138.278 63.4211 138.723 63.6878C139.167 63.9545 139.434 64.3989 139.434 65.11C139.434 66.0878 138.812 66.6211 138.367 66.7989C138.723 66.8878 138.989 67.1544 139.078 67.3322C139.256 67.6878 139.345 67.9544 139.345 68.4878V69.7322H137.834V68.9322C137.834 68.5766 137.834 68.0433 137.567 67.6878C137.478 67.51 137.212 67.51 136.678 67.51H135.078V69.7322Z" fill="#228FE0"/>
</g>
<g clip-path="url(#clip2)">
<path d="M238 71.9992C238 81.2435 230.534 88.799 221.2 88.799C211.956 88.799 204.401 81.2435 204.401 71.9992C204.401 62.7548 211.867 55.1993 221.112 55.1993C230.534 55.1993 238 62.7548 238 71.9992Z" fill="#FFB600"/>
<path d="M221.2 55.1993C230.445 55.1993 238 62.7548 238 71.9992C238 81.2435 230.534 88.799 221.2 88.799C211.956 88.799 204.401 81.2435 204.401 71.9992" fill="#F7981D"/>
<path d="M221.2 55.1993C230.444 55.1993 238 62.7548 238 71.9992C238 81.2435 230.533 88.799 221.2 88.799" fill="#FF8500"/>
<path d="M198.622 55.1993C189.467 55.2882 182 62.7548 182 71.9992C182 81.2435 189.467 88.799 198.8 88.799C203.155 88.799 207.066 87.1101 210.089 84.4435C210.711 83.9101 211.244 83.2879 211.777 82.6657H208.311C207.866 82.1324 207.422 81.5102 207.066 80.9768H213.022C213.377 80.4435 213.733 79.8213 214 79.1991H206.089C205.822 78.6658 205.555 78.0435 205.378 77.4213H214.622C215.155 75.7325 215.511 73.9547 215.511 72.0881C215.511 70.8436 215.333 69.6881 215.155 68.5325H204.844C204.933 67.9103 205.111 67.377 205.289 66.7548H214.533C214.355 66.1326 214.089 65.5103 213.822 64.977H206C206.266 64.3548 206.622 63.8215 206.978 63.1993H212.933C212.577 62.577 212.133 61.9548 211.6 61.4215H208.311C208.844 60.7993 209.377 60.266 210 59.7326C207.066 56.9771 203.066 55.3771 198.711 55.3771C198.711 55.1993 198.711 55.1993 198.622 55.1993Z" fill="#FF5050"/>
<path d="M182 72.0005C182 81.2448 189.467 88.8003 198.8 88.8003C203.155 88.8003 207.066 87.1114 210.089 84.4448C210.711 83.9114 211.244 83.2892 211.777 82.667H208.311C207.866 82.1337 207.422 81.5115 207.066 80.9781H213.022C213.377 80.4448 213.733 79.8226 214 79.2004H206.089C205.822 78.6671 205.555 78.0448 205.378 77.4226H214.622C215.155 75.7338 215.511 73.956 215.511 72.0893C215.511 70.8449 215.333 69.6894 215.155 68.5338H204.844C204.933 67.9116 205.111 67.3783 205.289 66.7561H214.533C214.355 66.1339 214.089 65.5116 213.822 64.9783H206C206.266 64.3561 206.622 63.8228 206.978 63.2006H212.933C212.577 62.5783 212.133 61.9561 211.6 61.4228H208.311C208.844 60.8006 209.377 60.2673 210 59.7339C207.066 56.9784 203.066 55.3784 198.711 55.3784H198.622" fill="#E52836"/>
<path d="M198.8 88.8003C203.156 88.8003 207.067 87.1114 210.089 84.4448C210.711 83.9114 211.245 83.2892 211.778 82.667H208.311C207.867 82.1337 207.422 81.5115 207.067 80.9781H213.022C213.378 80.4448 213.734 79.8226 214 79.2004H206.089C205.822 78.6671 205.556 78.0448 205.378 77.4226H214.622C215.156 75.7338 215.511 73.956 215.511 72.0893C215.511 70.8449 215.333 69.6894 215.156 68.5338H204.845C204.934 67.9116 205.111 67.3783 205.289 66.7561H214.533C214.356 66.1339 214.089 65.5116 213.822 64.9783H206C206.267 64.3561 206.622 63.8228 206.978 63.2006H212.934C212.578 62.5783 212.134 61.9561 211.6 61.4228H208.311C208.845 60.8006 209.378 60.2673 210 59.7339C207.067 56.9784 203.067 55.3784 198.711 55.3784H198.623" fill="#CB2026"/>
<path d="M204.755 76.2651L205.022 74.754C204.933 74.754 204.755 74.8429 204.578 74.8429C203.955 74.8429 203.867 74.4874 203.955 74.3096L204.489 71.1985H205.467L205.733 69.5096H204.844L205.022 68.443H203.244C203.244 68.443 202.178 74.3096 202.178 75.0207C202.178 76.0874 202.8 76.5318 203.6 76.5318C204.133 76.5318 204.578 76.354 204.755 76.2651Z" fill="white"/>
<path d="M205.377 73.4201C205.377 75.909 207.066 76.5312 208.488 76.5312C209.821 76.5312 210.355 76.2646 210.355 76.2646L210.71 74.5757C210.71 74.5757 209.732 75.0201 208.844 75.0201C206.888 75.0201 207.244 73.5979 207.244 73.5979H210.888C210.888 73.5979 211.155 72.4424 211.155 71.9979C211.155 70.8424 210.532 69.4202 208.577 69.4202C206.71 69.2424 205.377 71.1979 205.377 73.4201ZM208.488 70.8424C209.466 70.8424 209.288 71.9979 209.288 72.0868H207.332C207.332 71.9979 207.51 70.8424 208.488 70.8424Z" fill="white"/>
<path d="M219.777 76.2653L220.133 74.3098C220.133 74.3098 219.244 74.7542 218.621 74.7542C217.377 74.7542 216.844 73.7764 216.844 72.7098C216.844 70.5765 217.91 69.4209 219.155 69.4209C220.044 69.4209 220.755 69.9543 220.755 69.9543L221.021 68.0876C221.021 68.0876 219.955 67.6432 218.977 67.6432C216.933 67.6432 214.888 69.4209 214.888 72.7987C214.888 75.0209 215.955 76.532 218.088 76.532C218.799 76.532 219.777 76.2653 219.777 76.2653Z" fill="white"/>
<path d="M194.978 69.2428C193.733 69.2428 192.844 69.5983 192.844 69.5983L192.578 71.1094C192.578 71.1094 193.378 70.7539 194.533 70.7539C195.155 70.7539 195.689 70.8428 195.689 71.3761C195.689 71.7317 195.6 71.8206 195.6 71.8206C195.6 71.8206 195.066 71.8206 194.8 71.8206C193.289 71.8206 191.6 72.4428 191.6 74.4872C191.6 76.0872 192.667 76.4427 193.289 76.4427C194.533 76.4427 195.066 75.6427 195.155 75.6427L195.066 76.3538H196.666L197.378 71.465C197.378 69.3317 195.6 69.2428 194.978 69.2428ZM195.333 73.2428C195.333 73.5094 195.155 74.9316 194.089 74.9316C193.555 74.9316 193.378 74.4872 193.378 74.2205C193.378 73.7761 193.644 73.1539 194.978 73.1539C195.244 73.2428 195.333 73.2428 195.333 73.2428Z" fill="white"/>
<path d="M199.067 76.4427C199.511 76.4427 201.734 76.5316 201.734 74.1317C201.734 71.9095 199.6 72.3539 199.6 71.465C199.6 71.0206 199.956 70.8428 200.578 70.8428C200.845 70.8428 201.822 70.9317 201.822 70.9317L202.089 69.3317C202.089 69.3317 201.467 69.1539 200.4 69.1539C199.067 69.1539 197.734 69.6873 197.734 71.465C197.734 73.5094 199.956 73.3317 199.956 74.1317C199.956 74.665 199.334 74.7539 198.889 74.7539C198.089 74.7539 197.289 74.4872 197.289 74.4872L197.022 76.0872C197.111 76.265 197.556 76.4427 199.067 76.4427Z" fill="white"/>
<path d="M234.532 67.8209L234.177 70.2209C234.177 70.2209 233.466 69.332 232.488 69.332C230.888 69.332 229.466 71.2876 229.466 73.5986C229.466 75.0209 230.177 76.5319 231.688 76.5319C232.755 76.5319 233.377 75.8208 233.377 75.8208L233.288 76.4431H235.066L236.399 67.9098L234.532 67.8209ZM233.732 72.532C233.732 73.5098 233.288 74.7542 232.31 74.7542C231.688 74.7542 231.332 74.2209 231.332 73.332C231.332 71.9098 231.955 71.0209 232.755 71.0209C233.377 71.0209 233.732 71.4653 233.732 72.532Z" fill="white"/>
<path d="M185.289 76.3528L186.356 69.9529L186.533 76.3528H187.778L190.089 69.9529L189.111 76.3528H190.978L192.4 67.8196H189.467L187.689 73.064L187.6 67.8196H185.022L183.6 76.3528H185.289Z" fill="white"/>
<path d="M212.844 76.3538C213.377 73.4205 213.466 71.0205 214.711 71.465C214.888 70.3094 215.155 69.865 215.333 69.4205C215.333 69.4205 215.244 69.4205 214.977 69.4205C214.177 69.4205 213.555 70.4872 213.555 70.4872L213.733 69.5094H212.044L210.888 76.4427H212.844V76.3538Z" fill="white"/>
<path d="M223.866 69.2428C222.622 69.2428 221.733 69.5983 221.733 69.5983L221.466 71.1094C221.466 71.1094 222.266 70.7539 223.422 70.7539C224.044 70.7539 224.577 70.8428 224.577 71.3761C224.577 71.7317 224.488 71.8206 224.488 71.8206C224.488 71.8206 223.955 71.8206 223.688 71.8206C222.177 71.8206 220.489 72.4428 220.489 74.4872C220.489 76.0872 221.555 76.4427 222.177 76.4427C223.422 76.4427 223.955 75.6427 224.044 75.6427L223.955 76.3538H225.555L226.266 71.465C226.355 69.3317 224.488 69.2428 223.866 69.2428ZM224.311 73.2428C224.311 73.5094 224.133 74.9316 223.066 74.9316C222.533 74.9316 222.355 74.4872 222.355 74.2205C222.355 73.7761 222.622 73.1539 223.955 73.1539C224.222 73.2428 224.222 73.2428 224.311 73.2428Z" fill="white"/>
<path d="M227.777 76.3538C228.31 73.4205 228.399 71.0205 229.644 71.465C229.821 70.3094 230.088 69.865 230.266 69.4205C230.266 69.4205 230.177 69.4205 229.91 69.4205C229.11 69.4205 228.488 70.4872 228.488 70.4872L228.666 69.5094H226.977L225.822 76.4427H227.777V76.3538Z" fill="white"/>
<path d="M201.999 75.0207C201.999 76.0874 202.621 76.5318 203.421 76.5318C204.043 76.5318 204.577 76.354 204.755 76.2651L205.021 74.754C204.932 74.754 204.755 74.8429 204.577 74.8429C203.955 74.8429 203.866 74.4874 203.955 74.3096L204.488 71.1985H205.466L205.732 69.5096H204.843L205.021 68.443" fill="#DCE5E5"/>
<path d="M206.266 73.4201C206.266 75.909 207.066 76.5312 208.488 76.5312C209.821 76.5312 210.354 76.2646 210.354 76.2646L210.71 74.5757C210.71 74.5757 209.732 75.0201 208.843 75.0201C206.888 75.0201 207.243 73.5979 207.243 73.5979H210.888C210.888 73.5979 211.154 72.4424 211.154 71.9979C211.154 70.8424 210.532 69.4202 208.577 69.4202C206.71 69.2424 206.266 71.1979 206.266 73.4201ZM208.488 70.8424C209.466 70.8424 209.643 71.9979 209.643 72.0868H207.332C207.332 71.9979 207.51 70.8424 208.488 70.8424Z" fill="#DCE5E5"/>
<path d="M219.777 76.2653L220.132 74.3098C220.132 74.3098 219.243 74.7542 218.621 74.7542C217.377 74.7542 216.844 73.7764 216.844 72.7098C216.844 70.5765 217.91 69.4209 219.155 69.4209C220.043 69.4209 220.755 69.9543 220.755 69.9543L221.021 68.0876C221.021 68.0876 219.955 67.6432 218.977 67.6432C216.932 67.6432 215.777 69.4209 215.777 72.7987C215.777 75.0209 215.955 76.532 218.088 76.532C218.799 76.532 219.777 76.2653 219.777 76.2653Z" fill="#DCE5E5"/>
<path d="M192.578 71.1983C192.578 71.1983 193.378 70.8427 194.533 70.8427C195.155 70.8427 195.689 70.9316 195.689 71.465C195.689 71.8205 195.6 71.9094 195.6 71.9094C195.6 71.9094 195.066 71.9094 194.8 71.9094C193.289 71.9094 191.6 72.5316 191.6 74.576C191.6 76.176 192.667 76.5316 193.289 76.5316C194.533 76.5316 195.066 75.7316 195.155 75.7316L195.066 76.4427H196.666L197.378 71.5538C197.378 69.5094 195.6 69.4205 194.889 69.4205L192.578 71.1983ZM196.222 73.2427C196.222 73.5094 195.155 74.9316 194.089 74.9316C193.555 74.9316 193.378 74.4871 193.378 74.2205C193.378 73.776 193.644 73.1538 194.978 73.1538C195.244 73.2427 196.222 73.2427 196.222 73.2427Z" fill="#DCE5E5"/>
<path d="M197.111 76.265C197.111 76.265 197.645 76.4427 199.156 76.4427C199.6 76.4427 201.822 76.5316 201.822 74.1317C201.822 71.9095 199.689 72.3539 199.689 71.465C199.689 71.0206 200.045 70.8428 200.667 70.8428C200.934 70.8428 201.911 70.9317 201.911 70.9317L202.178 69.3317C202.178 69.3317 201.556 69.1539 200.489 69.1539C199.156 69.1539 198.711 69.6873 198.711 71.465C198.711 73.5094 200.045 73.3317 200.045 74.1317C200.045 74.665 199.422 74.7539 198.978 74.7539" fill="#DCE5E5"/>
<path d="M234.177 70.2209C234.177 70.2209 233.466 69.332 232.488 69.332C230.888 69.332 230.355 71.2875 230.355 73.5986C230.355 75.0208 230.177 76.5319 231.688 76.5319C232.755 76.5319 233.377 75.8208 233.377 75.8208L233.288 76.443H235.066L236.399 67.9098L234.177 70.2209ZM234.088 72.532C234.088 73.5097 233.288 74.7542 232.311 74.7542C231.688 74.7542 231.333 74.2208 231.333 73.3319C231.333 71.9097 231.955 71.0209 232.755 71.0209C233.377 71.0209 234.088 71.4653 234.088 72.532Z" fill="#DCE5E5"/>
<path d="M185.289 76.3528L186.356 69.9529L186.533 76.3528H187.778L190.089 69.9529L189.111 76.3528H190.978L192.4 67.8196H190.178L187.689 73.064L187.6 67.8196H186.622L183.6 76.3528H185.289Z" fill="#DCE5E5"/>
<path d="M210.977 76.3538H212.844C213.377 73.4205 213.466 71.0205 214.711 71.465C214.888 70.3094 215.155 69.865 215.333 69.4205C215.333 69.4205 215.244 69.4205 214.977 69.4205C214.177 69.4205 213.555 70.4872 213.555 70.4872L213.733 69.5094" fill="#DCE5E5"/>
<path d="M221.466 71.1983C221.466 71.1983 222.266 70.8427 223.422 70.8427C224.044 70.8427 224.577 70.9316 224.577 71.465C224.577 71.8205 224.488 71.9094 224.488 71.9094C224.488 71.9094 223.955 71.9094 223.688 71.9094C222.177 71.9094 220.489 72.5316 220.489 74.576C220.489 76.176 221.555 76.5316 222.177 76.5316C223.422 76.5316 223.955 75.7316 224.044 75.7316L223.955 76.4427H225.555L226.266 71.5538C226.266 69.5094 224.488 69.4205 223.777 69.4205L221.466 71.1983ZM225.111 73.2427C225.111 73.5094 224.044 74.9316 222.977 74.9316C222.444 74.9316 222.266 74.4871 222.266 74.2205C222.266 73.776 222.533 73.1538 223.866 73.1538C224.222 73.2427 225.111 73.2427 225.111 73.2427Z" fill="#DCE5E5"/>
<path d="M225.91 76.3538H227.777C228.31 73.4205 228.399 71.0205 229.644 71.465C229.821 70.3094 230.088 69.865 230.266 69.4205C230.266 69.4205 230.177 69.4205 229.91 69.4205C229.11 69.4205 228.488 70.4872 228.488 70.4872L228.666 69.5094" fill="#DCE5E5"/>
</g>
<path d="M168.727 128.66L168.146 132H167.045L168.527 123.469L171.375 123.475C172.254 123.475 172.932 123.709 173.408 124.178C173.885 124.643 174.09 125.262 174.023 126.035C173.953 126.852 173.627 127.494 173.045 127.963C172.467 128.432 171.703 128.666 170.754 128.666L168.727 128.66ZM168.885 127.74L170.783 127.746C171.381 127.746 171.871 127.596 172.254 127.295C172.637 126.994 172.861 126.576 172.928 126.041C172.99 125.561 172.891 125.172 172.629 124.875C172.367 124.574 171.986 124.416 171.486 124.4L169.465 124.395L168.885 127.74Z" fill="#677294"/>
<path d="M177.727 125.543C178.258 125.551 178.713 125.695 179.092 125.977C179.471 126.258 179.75 126.646 179.93 127.143C180.113 127.635 180.176 128.174 180.117 128.76L180.105 128.889C180.031 129.506 179.848 130.064 179.555 130.564C179.262 131.061 178.883 131.447 178.418 131.725C177.953 132.002 177.443 132.133 176.889 132.117C176.361 132.109 175.906 131.965 175.523 131.684C175.145 131.402 174.867 131.02 174.691 130.535C174.516 130.051 174.453 129.518 174.504 128.936C174.562 128.279 174.74 127.689 175.037 127.166C175.334 126.643 175.715 126.238 176.18 125.953C176.648 125.664 177.164 125.527 177.727 125.543ZM175.57 128.941C175.543 129.188 175.543 129.443 175.57 129.709C175.609 130.17 175.746 130.537 175.98 130.811C176.219 131.084 176.535 131.227 176.93 131.238C177.281 131.25 177.605 131.164 177.902 130.98C178.199 130.793 178.449 130.512 178.652 130.137C178.855 129.762 178.986 129.346 179.045 128.889C179.076 128.529 179.082 128.227 179.062 127.98C179.016 127.508 178.873 127.135 178.635 126.861C178.396 126.588 178.08 126.443 177.686 126.428C177.139 126.416 176.674 126.631 176.291 127.072C175.908 127.514 175.672 128.092 175.582 128.807L175.57 128.941Z" fill="#677294"/>
<path d="M186.598 130.5L188.619 125.66H189.715L186.826 132H185.965L185.309 127.207L183.023 132H182.162L181.477 125.66H182.49L182.877 130.383L185.127 125.66H185.982L186.598 130.5Z" fill="#677294"/>
<path d="M192.463 132.117C191.674 132.102 191.057 131.811 190.611 131.244C190.166 130.678 189.979 129.953 190.049 129.07L190.078 128.818C190.145 128.189 190.33 127.615 190.635 127.096C190.943 126.576 191.318 126.186 191.76 125.924C192.201 125.658 192.678 125.531 193.189 125.543C193.842 125.559 194.354 125.775 194.725 126.193C195.096 126.611 195.299 127.178 195.334 127.893C195.346 128.146 195.338 128.4 195.311 128.654L195.246 129.141H191.104C191.033 129.715 191.127 130.203 191.385 130.605C191.646 131.008 192.035 131.217 192.551 131.232C193.176 131.248 193.754 130.967 194.285 130.389L194.895 130.904C194.629 131.287 194.285 131.588 193.863 131.807C193.445 132.021 192.979 132.125 192.463 132.117ZM193.137 126.428C192.699 126.416 192.316 126.564 191.988 126.873C191.664 127.182 191.406 127.641 191.215 128.25L194.297 128.256L194.32 128.162C194.383 127.67 194.303 127.262 194.08 126.938C193.861 126.609 193.547 126.439 193.137 126.428Z" fill="#677294"/>
<path d="M199.887 126.627L199.389 126.574C198.709 126.574 198.174 126.881 197.783 127.494L197.004 132H195.943L197.045 125.66L198.07 125.654L197.912 126.393C198.361 125.803 198.891 125.516 199.5 125.531C199.629 125.531 199.797 125.561 200.004 125.619L199.887 126.627Z" fill="#677294"/>
<path d="M202.564 132.117C201.775 132.102 201.158 131.811 200.713 131.244C200.268 130.678 200.08 129.953 200.15 129.07L200.18 128.818C200.246 128.189 200.432 127.615 200.736 127.096C201.045 126.576 201.42 126.186 201.861 125.924C202.303 125.658 202.779 125.531 203.291 125.543C203.943 125.559 204.455 125.775 204.826 126.193C205.197 126.611 205.4 127.178 205.436 127.893C205.447 128.146 205.439 128.4 205.412 128.654L205.348 129.141H201.205C201.135 129.715 201.229 130.203 201.486 130.605C201.748 131.008 202.137 131.217 202.652 131.232C203.277 131.248 203.855 130.967 204.387 130.389L204.996 130.904C204.73 131.287 204.387 131.588 203.965 131.807C203.547 132.021 203.08 132.125 202.564 132.117ZM203.238 126.428C202.801 126.416 202.418 126.564 202.09 126.873C201.766 127.182 201.508 127.641 201.316 128.25L204.398 128.256L204.422 128.162C204.484 127.67 204.404 127.262 204.182 126.938C203.963 126.609 203.648 126.439 203.238 126.428Z" fill="#677294"/>
<path d="M206.35 128.818C206.428 128.174 206.605 127.592 206.883 127.072C207.16 126.553 207.502 126.164 207.908 125.906C208.314 125.648 208.762 125.525 209.25 125.537C209.957 125.553 210.5 125.811 210.879 126.311L211.488 123H212.549L210.99 132H210.023L210.135 131.32C209.635 131.867 209.018 132.133 208.283 132.117C207.697 132.102 207.23 131.873 206.883 131.432C206.535 130.986 206.348 130.391 206.32 129.645C206.309 129.414 206.318 129.139 206.35 128.818ZM207.369 129.428C207.357 129.986 207.457 130.42 207.668 130.729C207.879 131.037 208.188 131.195 208.594 131.203C209.207 131.23 209.752 130.922 210.229 130.277L210.732 127.348C210.498 126.77 210.072 126.473 209.455 126.457C209.037 126.445 208.668 126.572 208.348 126.838C208.031 127.1 207.789 127.469 207.621 127.945C207.457 128.418 207.373 128.912 207.369 129.428Z" fill="#677294"/>
<path d="M221.361 128.859C221.283 129.508 221.105 130.092 220.828 130.611C220.551 131.131 220.215 131.516 219.82 131.766C219.426 132.016 218.988 132.135 218.508 132.123C217.742 132.107 217.174 131.82 216.803 131.262L216.586 132H215.607L217.172 123H218.232L217.594 126.363C218.102 125.801 218.719 125.527 219.445 125.543C220.055 125.559 220.529 125.783 220.869 126.217C221.209 126.65 221.389 127.248 221.408 128.01C221.412 128.26 221.4 128.502 221.373 128.736L221.361 128.859ZM220.354 128.244C220.365 127.674 220.27 127.238 220.066 126.938C219.863 126.633 219.553 126.473 219.135 126.457C218.475 126.441 217.916 126.773 217.459 127.453L216.984 130.213C217.219 130.857 217.658 131.188 218.303 131.203C218.717 131.219 219.078 131.096 219.387 130.834C219.699 130.572 219.936 130.207 220.096 129.738C220.256 129.266 220.342 128.768 220.354 128.244Z" fill="#677294"/>
<path d="M224.408 130.4L226.664 125.66H227.836L224.074 133.055C223.551 134.082 222.879 134.59 222.059 134.578C221.914 134.574 221.701 134.539 221.42 134.473L221.514 133.594L221.789 133.623C222.125 133.639 222.414 133.562 222.656 133.395C222.902 133.23 223.119 132.963 223.307 132.592L223.688 131.865L222.592 125.66H223.699L224.408 130.4Z" fill="#677294"/>
<path d="M235.6 129.803C235.686 129.178 235.361 128.721 234.627 128.432L233.613 128.062L233.273 127.916C232.133 127.396 231.6 126.666 231.674 125.725C231.713 125.252 231.875 124.834 232.16 124.471C232.445 124.107 232.822 123.828 233.291 123.633C233.764 123.434 234.266 123.34 234.797 123.352C235.312 123.363 235.771 123.479 236.174 123.697C236.58 123.916 236.889 124.223 237.1 124.617C237.311 125.008 237.404 125.449 237.381 125.941L236.273 125.936C236.312 125.412 236.195 125.008 235.922 124.723C235.648 124.434 235.258 124.285 234.75 124.277C234.215 124.27 233.768 124.395 233.408 124.652C233.049 124.91 232.842 125.262 232.787 125.707C232.709 126.289 233.066 126.73 233.859 127.031L234.732 127.342L235.172 127.529C236.273 128.037 236.783 128.791 236.701 129.791C236.658 130.271 236.496 130.688 236.215 131.039C235.934 131.387 235.551 131.656 235.066 131.848C234.586 132.039 234.068 132.129 233.514 132.117C232.979 132.113 232.488 132 232.043 131.777C231.602 131.551 231.266 131.242 231.035 130.852C230.805 130.461 230.703 130.018 230.73 129.521L231.832 129.527C231.797 130.035 231.934 130.439 232.242 130.74C232.555 131.037 232.994 131.189 233.561 131.197C234.127 131.205 234.594 131.082 234.961 130.828C235.328 130.574 235.541 130.232 235.6 129.803Z" fill="#677294"/>
<path d="M240.416 124.125L240.146 125.66H241.301L241.154 126.498H240.006L239.344 130.441C239.332 130.543 239.33 130.637 239.338 130.723C239.365 131.027 239.531 131.18 239.836 131.18C239.965 131.18 240.137 131.16 240.352 131.121L240.27 132.006C240.016 132.076 239.758 132.111 239.496 132.111C239.074 132.104 238.758 131.949 238.547 131.648C238.336 131.344 238.254 130.936 238.301 130.424L238.945 126.498H237.826L237.973 125.66H239.092L239.361 124.125H240.416Z" fill="#677294"/>
<path d="M245.426 126.627L244.928 126.574C244.248 126.574 243.713 126.881 243.322 127.494L242.543 132H241.482L242.584 125.66L243.609 125.654L243.451 126.393C243.9 125.803 244.43 125.516 245.039 125.531C245.168 125.531 245.336 125.561 245.543 125.619L245.426 126.627Z" fill="#677294"/>
<path d="M246.627 132H245.572L246.674 125.66H247.729L246.627 132ZM247.5 123.346C247.68 123.338 247.828 123.393 247.945 123.51C248.066 123.623 248.127 123.773 248.127 123.961C248.123 124.145 248.062 124.295 247.945 124.412C247.832 124.529 247.684 124.592 247.5 124.6C247.316 124.607 247.166 124.555 247.049 124.441C246.932 124.328 246.875 124.18 246.879 123.996C246.883 123.812 246.941 123.66 247.055 123.539C247.168 123.418 247.316 123.354 247.5 123.346Z" fill="#677294"/>
<path d="M254.104 128.859C254.025 129.504 253.852 130.084 253.582 130.6C253.312 131.115 252.979 131.502 252.58 131.76C252.182 132.014 251.74 132.135 251.256 132.123C250.521 132.107 249.959 131.859 249.568 131.379L249 134.438H247.939L249.463 125.66L250.424 125.654L250.307 126.363C250.83 125.801 251.457 125.527 252.188 125.543C252.797 125.559 253.271 125.783 253.611 126.217C253.951 126.65 254.131 127.248 254.15 128.01C254.154 128.26 254.145 128.502 254.121 128.736L254.104 128.859ZM253.061 128.736L253.09 128.244C253.09 127.674 252.98 127.238 252.762 126.938C252.547 126.633 252.234 126.473 251.824 126.457C251.211 126.441 250.682 126.732 250.236 127.33L249.703 130.371C249.941 130.934 250.369 131.223 250.986 131.238C251.514 131.25 251.961 131.045 252.328 130.623C252.699 130.197 252.943 129.568 253.061 128.736Z" fill="#677294"/>
<path d="M257.701 132.117C256.912 132.102 256.295 131.811 255.85 131.244C255.404 130.678 255.217 129.953 255.287 129.07L255.316 128.818C255.383 128.189 255.568 127.615 255.873 127.096C256.182 126.576 256.557 126.186 256.998 125.924C257.439 125.658 257.916 125.531 258.428 125.543C259.08 125.559 259.592 125.775 259.963 126.193C260.334 126.611 260.537 127.178 260.572 127.893C260.584 128.146 260.576 128.4 260.549 128.654L260.484 129.141H256.342C256.271 129.715 256.365 130.203 256.623 130.605C256.885 131.008 257.273 131.217 257.789 131.232C258.414 131.248 258.992 130.967 259.523 130.389L260.133 130.904C259.867 131.287 259.523 131.588 259.102 131.807C258.684 132.021 258.217 132.125 257.701 132.117ZM258.375 126.428C257.938 126.416 257.555 126.564 257.227 126.873C256.902 127.182 256.645 127.641 256.453 128.25L259.535 128.256L259.559 128.162C259.621 127.67 259.541 127.262 259.318 126.938C259.1 126.609 258.785 126.439 258.375 126.428Z" fill="#677294"/>
<defs>
<clipPath id="clip0">
<rect width="55.9994" height="55.9994" fill="white" transform="translate(35 44.0001)"/>
</clipPath>
<clipPath id="clip1">
<rect width="56" height="55.9994" fill="white" transform="translate(108.5 44)"/>
</clipPath>
<clipPath id="clip2">
<rect width="55.9994" height="55.9994" fill="white" transform="translate(182 44)"/>
</clipPath>
</defs>
</svg>
